<svg width="800.4" height="800.4" viewBox="0 0 800.4 800.4" xmlns="http://www.w3.org/2000/svg" xmlns:xlink="http://www.w3.org/1999/xlink" id="svg2" overflow="hidden"><defs id="defs4"></defs><g id="layer1" transform="matrix(1 0 0 1 0 -251.962)"><path d="M54.4702 1044.43C-6.73062 1016.04-18.5952 938.797 31.3296 893.785 67.8966 860.817 117.845 862.725 153.576 898.455 189.306 934.185 191.214 984.134 158.246 1020.7 131.008 1050.91 89.0946 1060.5 54.4702 1044.43ZM361.08 1042.4C311.02 1019.09 294.249 954.718 326.283 908.843 341.124 887.591 374.185 870.283 399.938 870.283 425.691 870.283 458.752 887.591 473.592 908.843 496.033 940.979 494.855 986.385 470.76 1017.97 456.631 1036.5 424.333 1052.03 399.938 1052.03 389.261 1052.03 373.221 1048.06 361.08 1042.4ZM672.675 1044.57C641.48 1030.36 618.215 994.987 618.15 961.664 618.059 914.639 662.484 870.214 709.509 870.305 742.832 870.37 778.207 893.635 792.415 924.83 825.725 997.97 745.815 1077.88 672.675 1044.57ZM67.8871 739.173C41.5247 732.376 21.0112 715.396 9.62868 690.951-2.77744 664.307-2.77744 639.879 9.62868 613.235 39.7618 548.519 131.874 544.29 168.017 605.963 209.05 675.981 146.346 759.401 67.8871 739.173ZM383.776 741.028C311.71 727.582 284.596 636.385 337.949 586.895 356.573 569.619 374.857 562.392 399.938 562.392 450.711 562.392 489.638 601.32 489.638 652.093 489.638 708.585 438.801 751.294 383.776 741.028ZM690.858 740.543C651.17 732.886 618.128 692.703 618.128 652.093 618.128 626.34 635.436 593.279 656.688 578.438 702.563 546.404 766.938 563.175 790.247 613.235 802.701 639.983 802.659 664.294 790.11 691.247 779.334 714.391 755.51 734.687 734.06 738.997 726.966 740.422 718.435 742.142 715.101 742.819 711.768 743.496 700.858 742.472 690.858 740.543ZM59.0148 427.967C11.9643 411.196-13.2786 351.622 7.59908 306.625 35.9951 245.424 113.234 233.56 158.246 283.485 191.214 320.052 189.306 370 153.576 405.731 126.784 432.522 93.6518 440.313 59.0148 427.967ZM359.052 422.616C292.525 387.861 293.719 293.149 361.08 261.784 387.724 249.378 412.152 249.378 438.796 261.784 506.157 293.149 507.351 387.861 440.823 422.616 411.904 437.723 387.971 437.723 359.052 422.616ZM678.736 428.595C647.919 418.827 618.085 376.443 618.15 342.521 618.214 309.198 641.48 273.823 672.675 259.616 730.623 233.225 799.776 278.587 799.776 342.99 799.776 404.773 739.058 447.715 678.736 428.595Z" id="path3349" stroke-width="13.2267" stroke-dashoffset="1"/></g></svg>